PathFileType	4	(X/Y/Z)	E:\Marcel_BSc\Ayumi_22_01_2025\22-01-2025\sumo_dl_0.trc
DataRate	CameraRate	NumFrames	NumMarkers	Units	OrigDataRate	OrigDataStartFrame	OrigNumFrames
200.0	200.0	7	48	mm	200.0	2260	2582	
Frame#	Time	RUFIN			FHD			LBHD			RBHD			RBAR			LBAR			RSACR			LSACR			LASI			USACR			LTHI2			C7			CLAV			T10			RSHO			LSHO			LTHI1			LTHI3			LTIB1			LTIB2			LTIB3			LMMAL			LLMAL			LHEE			LMT1			LMT5			LMT3			RTHI1			RTHI2			RTHI3			RTIB1			RTIB3			RTIB2			RLMAL			RMMAL			RHEE			RMT5			RMT1			RMT3			LDUPA			LMUPA			LUUPA			LRAD			RRAD			RUL			RMUPA			RDUPA			RUUPA			
		X1	Y1	Z1	X2	Y2	Z2	X3	Y3	Z3	X4	Y4	Z4	X5	Y5	Z5	X6	Y6	Z6	X7	Y7	Z7	X8	Y8	Z8	X9	Y9	Z9	X10	Y10	Z10	X11	Y11	Z11	X12	Y12	Z12	X13	Y13	Z13	X14	Y14	Z14	X15	Y15	Z15	X16	Y16	Z16	X17	Y17	Z17	X18	Y18	Z18	X19	Y19	Z19	X20	Y20	Z20	X21	Y21	Z21	X22	Y22	Z22	X23	Y23	Z23	X24	Y24	Z24	X25	Y25	Z25	X26	Y26	Z26	X27	Y27	Z27	X28	Y28	Z28	X29	Y29	Z29	X30	Y30	Z30	X31	Y31	Z31	X32	Y32	Z32	X33	Y33	Z33	X34	Y34	Z34	X35	Y35	Z35	X36	Y36	Z36	X37	Y37	Z37	X38	Y38	Z38	X39	Y39	Z39	X40	Y40	Z40	X41	Y41	Z41	X42	Y42	Z42	X43	Y43	Z43	X44	Y44	Z44	X45	Y45	Z45	X46	Y46	Z46	X47	Y47	Z47	X48	Y48	Z48	
2260	11.29	237.38893	1234.6305	-1684.2345	146.00731	1522.2917	-969.73975	159.98589	1503.4609	-909.37689	186.30762	1491.2283	-1041.1403	234.57034	236.22057	-2091.9417	250.46295	249.89069	128.87491	389.26401	856.07483	-1006.8403	388.18378	861.06171	-933.34277				384.75183	870.8941	-971.16608	297.99832	520.97266	-682.40204	332.50693	1306.5507	-967.49469	196.64642	1238.3323	-978.51617	375.06006	1035.876	-970.63831	261.39697	1309.9861	-1116.5472	255.62502	1304.5594	-826.95343	330.60019	570.47162	-715.20044	339.45459	505.46283	-706.97748	321.13077	242.37253	-550.06152	359.7247	222.77286	-576.25244	332.1637	179.26971	-535.70026	270.80826	66.864586	-545.3606	330.1554	72.810646	-498.25735	336.60648	31.449829	-547.55365	186.45868	45.666771	-422.1355	253.3403	29.078184	-377.41742	207.58075	41.844738	-393.78229	333.62268	564.80914	-1207.8219	302.76895	517.41919	-1243.4447	343.77502	500.76883	-1217.6875	328.80637	271.5759	-1359.2664	337.97284	207.79323	-1374.41	365.98618	250.08681	-1331.4738	329.76431	71.857178	-1429.4763	256.91058	68.777687	-1398.4635	327.02133	28.684435	-1377.983	253.54185	26.594584	-1553.8013	194.16722	37.019089	-1523.402	217.36096	35.032532	-1544.0227	334.08652	1218.0503	-643.81134	302.43933	1256.5161	-644.0733	315.04575	1266.9889	-704.09363	245.77603	1224.8335	-318.08734	244.19943	1230.309	-1613.9858	305.65689	1225.1199	-1615.6893	331.93866	1269.0759	-1221.9529	333.16754	1256.592	-1282.5541	355.75653	1225.7457	-1213.5262
2261	11.295	237.8562	1235.4963	-1684.3375	146.03842	1522.3187	-969.86517	159.99753	1503.5486	-909.46191	186.34129	1491.1281	-1041.3011	234.54568	236.36914	-2091.8752	250.47562	249.89659	128.87817	389.0079	855.97235	-1006.7864	388.19656	860.94904	-933.28491				384.54214	870.75952	-971.14191	297.86975	520.83081	-682.55481	332.349	1306.4521	-967.48645	196.44899	1238.2703	-978.53107	374.81979	1035.7819	-970.63788	261.27737	1309.9735	-1116.4841	255.44385	1304.5565	-827.02429	329.99319	569.98621	-715.46967	339.29648	505.43106	-707.1322	321.116	242.34444	-550.12738	359.69461	222.74937	-576.30829	332.71188	179.27734	-535.45581	270.75735	66.775452	-545.46539	330.0874	72.789001	-498.38373	336.60062	31.39805	-547.58905	186.43277	45.610756	-422.09619	253.28914	28.961849	-377.34348	207.59531	41.782143	-393.81949	333.50739	564.67139	-1207.9326	302.66397	517.38751	-1243.396	343.87576	500.49884	-1217.7832	328.72638	271.63489	-1359.2252	337.94867	207.76089	-1374.3933	365.62283	250.26343	-1331.4004	329.90604	71.961525	-1429.9238	256.94409	68.726326	-1398.3822	327.01547	28.788607	-1378.0211	253.55602	26.574945	-1553.826	194.16772	36.932934	-1523.4318	217.36823	34.98148	-1544.0724	334.0217	1218.3484	-643.87335	302.37802	1256.7324	-644.159	314.93973	1267.15	-704.19489	245.95401	1225.4174	-318.04651	244.36728	1230.8456	-1614.0063	305.98596	1225.8612	-1615.6399	331.88348	1269.1165	-1221.8846	333.15182	1256.722	-1282.4792	355.63858	1225.7316	-1213.464
2262	11.3	238.34271	1236.2502	-1684.4431	146.04007	1522.3475	-969.99237	159.95317	1503.6251	-909.58508	186.30655	1491.0939	-1041.3508	234.56355	236.37991	-2091.8699	250.49025	249.89061	128.87149	388.78973	855.8222	-1006.7548	387.9126	860.85217	-933.25726				384.27036	870.62817	-971.13043	297.73981	520.70905	-682.72632	332.15143	1306.3889	-967.46716	196.25174	1238.183	-978.5434	374.59918	1035.74	-970.61383	261.12146	1309.9708	-1116.3857	255.27802	1304.4838	-827.05847	329.78992	569.93622	-715.61224	339.20413	505.36542	-707.30469	320.97183	242.00928	-550.41693	359.7233	222.66321	-576.38025	332.13498	179.19412	-535.82416	270.79507	66.619049	-545.48865	330.02881	72.776115	-498.48532	336.54987	31.392015	-547.61115	186.44981	45.511829	-422.07358	253.34615	28.935162	-377.38843	207.58237	41.708511	-393.79248	333.30371	564.664	-1207.9222	302.52795	517.31427	-1243.3685	343.64771	500.6553	-1217.7483	328.82343	271.50772	-1359.2257	337.95911	207.74231	-1374.3763	365.63846	250.21782	-1331.4229	329.85028	71.927834	-1429.8375	256.94888	68.612564	-1398.3062	326.99036	28.739029	-1377.9639	253.55554	26.564098	-1553.8508	194.14423	36.825417	-1523.4539	217.35056	34.93198	-1544.1122	333.94754	1218.6202	-643.92194	302.33679	1256.9672	-644.20868	314.828	1267.3507	-704.26086	246.17326	1225.9182	-318.0325	244.59622	1231.9785	-1614.1256	306.35004	1226.9204	-1615.593	331.81332	1269.1227	-1221.8207	333.10104	1256.8777	-1282.4006	355.52298	1225.7427	-1213.384
2263	11.305	238.84993	1236.8766	-1684.5745	146.02519	1522.5032	-970.02081	159.96098	1503.6802	-909.63702	186.27885	1491.0005	-1041.4646	234.57306	236.36736	-2091.8845	250.50204	249.8916	128.87025	388.56317	855.72803	-1006.6962	387.36356	860.74365	-933.24878				384.02319	870.60425	-971.0379	297.59842	520.52142	-682.89032	331.93036	1306.3439	-967.45709	196.02054	1238.1377	-978.52612	374.38983	1035.6228	-970.60797	260.95416	1309.9475	-1116.3058	254.98128	1304.3706	-827.12164	330.4549	570.01025	-715.54291	339.07266	505.36584	-707.49957	320.96326	241.97743	-550.53284	359.71774	222.56531	-576.54364	332.83578	179.14087	-535.59149	270.74774	66.560074	-545.62079	329.9628	72.756927	-498.59573	336.52591	31.372019	-547.63867	186.45937	45.447792	-422.05209	253.24506	28.886866	-377.27615	207.52164	41.736156	-393.79593	333.06833	564.70441	-1207.8484	302.30545	517.41913	-1243.2583	343.52667	500.66681	-1217.7205	328.83157	271.58685	-1359.1979	337.92859	207.69398	-1374.3665	365.69745	250.16376	-1331.479	329.83554	71.898056	-1429.7594	256.83023	68.264488	-1398.2701	327.00153	28.774231	-1377.9634	253.57455	26.544621	-1553.8901	194.15013	36.75177	-1523.4751	217.38815	34.939709	-1544.1426	333.88773	1218.8413	-643.95764	302.24097	1257.1594	-644.27368	314.65225	1267.5056	-704.3454	246.39619	1226.365	-317.95642	245.19106	1232.4769	-1614.1492	306.6835	1227.1584	-1615.5538	331.72958	1269.1782	-1221.7119	333.0416	1257.0634	-1282.2621	355.36609	1225.769	-1213.2957
2264	11.31	239.27936	1237.6675	-1684.5569	145.98988	1522.5522	-970.11951	159.93948	1503.7228	-909.7019	186.26553	1490.8658	-1041.6045	234.58734	236.37393	-2091.886	250.50833	249.88242	128.87201	388.30923	855.64789	-1006.6456	387.10474	860.61395	-933.20544				383.61194	870.50269	-970.99927	297.46201	520.34839	-683.1062	331.75186	1306.2089	-967.43158	195.79451	1238.0427	-978.53326	374.18069	1035.546	-970.59393	260.80829	1309.9127	-1116.1995	254.72609	1304.3575	-827.17145	329.6546	570.38849	-716.07147	338.95377	505.29218	-707.71301	321.02115	241.97406	-550.6734	359.78275	222.4436	-576.67065	332.81183	179.13693	-535.70721	270.74869	66.456779	-545.69177	329.92258	72.754295	-498.68845	336.49625	31.339611	-547.67712	186.46249	45.389172	-422.02963	253.29665	28.849308	-377.28415	207.51653	41.712112	-393.73993	332.88773	564.651	-1207.8462	302.16122	517.37537	-1243.2159	343.35754	500.73087	-1217.6655	328.7518	271.63211	-1359.135	337.96939	207.69449	-1374.3961	366.16327	249.95497	-1331.5775	329.81177	71.837662	-1429.7097	256.74915	68.347931	-1398.201	326.95609	28.622332	-1377.9088	253.61392	26.515722	-1553.9193	194.17531	36.698776	-1523.4895	217.37447	34.885014	-1544.172	333.78882	1219.0493	-644.01117	302.18326	1257.323	-644.33136	314.50873	1267.6372	-704.40051	246.68022	1226.7028	-317.91028	245.55461	1233.1251	-1614.1838	306.96381	1227.766	-1615.4633	331.65698	1269.1829	-1221.6322	333.01395	1257.1622	-1282.1659	355.25195	1225.7474	-1213.2152
2265	11.315	239.65967	1238.3081	-1684.6383	145.95274	1522.5264	-970.23926	159.86833	1503.741	-909.81805	186.21738	1490.7249	-1041.7421	234.59969	236.36261	-2091.9001	250.5174	249.88614	128.86836	388.04483	855.50037	-1006.645	386.83691	860.45953	-933.16522				383.42096	870.31317	-970.9549	297.36893	520.19855	-683.28198	331.57233	1306.0901	-967.41156	195.54298	1237.9681	-978.51282	373.95969	1035.4175	-970.5885	260.6199	1309.9001	-1116.089	254.54718	1304.4154	-827.16534	328.31989	569.72198	-716.35498	338.85974	505.14923	-707.89624	321.30017	242.19064	-550.57092	359.89697	222.32809	-576.84125	332.70761	179.03973	-535.90857	270.77866	66.333252	-545.78094	329.87155	72.75116	-498.77917	336.46979	31.319324	-547.69788	186.49791	45.286846	-422.03714	253.25813	28.832155	-377.21347	207.54903	41.642109	-393.74734	332.84137	564.84161	-1208.0685	302.06735	517.22339	-1243.1962	343.27783	500.65274	-1217.6431	328.85944	271.46826	-1359.2322	338.00378	207.67384	-1374.3889	366.24585	249.90802	-1331.6519	329.80008	71.781509	-1429.6321	256.87082	68.297195	-1398.1191	326.95648	28.62921	-1377.9032	253.62697	26.498713	-1553.9541	194.19725	36.634743	-1523.5022	217.38564	34.86927	-1544.1869	333.71515	1219.2233	-644.07007	302.09796	1257.4692	-644.38989	314.33746	1267.8002	-704.47522	246.90901	1227.0955	-317.84079	245.87334	1233.7355	-1614.2181	307.28177	1228.1887	-1615.4274	331.58755	1269.2209	-1221.5035	332.9679	1257.2356	-1282.0725	355.05276	1225.8635	-1213.0656
2266	11.32	240.18893	1238.781	-1684.7177	145.89449	1522.6057	-970.30536	159.78612	1503.7666	-909.91211	186.17047	1490.6024	-1041.823	234.63155	236.36391	-2091.8855	250.53784	249.87985	128.86365	387.78619	855.39081	-1006.5997	386.80966	860.31305	-933.14227				383.14706	870.21112	-970.9162	297.27679	520.00903	-683.50348	331.3605	1306	-967.3822	195.31935	1237.8606	-978.53033	373.70026	1035.3247	-970.57404	260.4563	1309.8711	-1115.9592	254.31364	1304.2788	-827.18103	328.8255	569.42621	-716.38141	338.74854	505.0614	-708.12823	321.21893	241.87831	-550.96387	359.93735	222.19949	-577.05511	332.88687	178.98497	-535.99689	270.81845	66.245705	-545.89282	329.82242	72.716476	-498.90662	336.47064	31.280239	-547.7077	186.50764	45.223339	-422.01999	253.23701	28.756109	-377.19708	207.55418	41.595692	-393.76257	332.65027	564.86786	-1207.9706	301.9538	517.08154	-1243.1226	343.09552	500.74225	-1217.5367	328.9292	271.48154	-1359.1677	337.99249	207.60583	-1374.4126	366.30734	249.88127	-1331.6689	329.79529	71.747406	-1429.5879	256.83255	68.2976	-1398.0739	326.93094	28.707062	-1377.9237	253.63997	26.475698	-1553.9858	194.21242	36.549858	-1523.5342	217.35925	34.812096	-1544.2244	333.62357	1219.3905	-644.09668	301.92679	1257.66	-644.44604	314.21133	1268.0062	-704.48804	247.16086	1227.3575	-317.82977	246.14197	1234.3318	-1614.203	307.61136	1228.7314	-1615.2852	331.49609	1269.2677	-1221.4011	332.92532	1257.2928	-1281.9946	354.88077	1225.8884	-1212.9451
